<svg width="56" height="56" viewBox="0 0 56 56" fill="none" xmlns="http://www.w3.org/2000/svg">
<path d="M53.3361 16.0802C51.0742 11.2724 47.491 7.20741 43.0051 4.36003C38.5191 1.51265 33.3156 0.000428964 28.0023 9.12124e-08C22.6889 -0.000428782 17.4852 1.51095 12.9988 4.35761C8.51235 7.20426 4.9285 11.2687 2.66581 16.0761L3.16137 16.3094C5.3798 11.596 8.89354 7.61105 13.2922 4.82007C17.6909 2.0291 22.7928 0.547286 28.0022 0.547707C33.2116 0.548127 38.3133 2.03077 42.7115 4.82245C47.1097 7.61413 50.6229 11.5996 52.8405 16.3134L53.3361 16.0802Z" fill="#C95C3F"/>
<path d="M53.3352 39.9218C51.0729 44.7295 47.4893 48.7942 43.0032 51.6412C38.517 54.4882 33.3133 56 28 56C22.6867 56 17.483 54.4882 12.9969 51.6412C8.51068 48.7942 4.92716 44.7295 2.66485 39.9218L3.17155 39.6834C5.38861 44.3949 8.90046 48.3783 13.2969 51.1684C17.6934 53.9584 22.793 55.44 28 55.44C33.2071 55.44 38.3066 53.9584 42.7031 51.1684C47.0996 48.3783 50.6114 44.3949 52.8285 39.6834L53.3352 39.9218Z" fill="#C95C3F"/>
</svg>
