<svg width="51" height="49" viewBox="0 0 51 49" fill="none" xmlns="http://www.w3.org/2000/svg">
<path fill-rule="evenodd" clip-rule="evenodd" d="M25.5297 1.73362C25.3072 1.91082 24.8601 2.86447 24.6897 3.52562C24.5134 4.2093 24.4162 5.13939 24.4646 5.67817C24.5335 6.44384 24.6246 6.85055 24.9682 7.92568C25.7132 10.2564 25.9889 11.5264 26.0404 12.8639C26.0677 13.5739 26.0531 13.8891 25.9758 14.2552C25.7113 15.5075 24.9856 16.2288 23.8762 16.342C22.3627 16.4964 21.2172 15.7877 20.6845 14.367C20.5769 14.08 20.4311 13.7954 20.3604 13.7344C20.1681 13.5683 19.7743 13.5889 19.5908 13.7746C19.1688 14.2017 18.8645 16.791 19.0534 18.3468C19.176 19.3566 19.1197 19.277 19.676 19.2272C20.9049 19.1171 22.279 19.4366 24.843 20.4286C27.6579 21.5176 29.706 22.0727 32.1295 22.4034C33.5259 22.594 37.2946 22.5431 38.0179 22.324C38.2321 22.2591 38.5058 20.7351 38.5078 19.5969C38.5102 18.2668 38.2139 17.0037 37.6041 15.7445C37.0805 14.663 36.803 14.4097 36.3513 14.6009C36.1397 14.6905 36.0726 14.8059 35.8838 15.4056C35.7305 15.8923 35.4021 16.4665 35.022 16.9125C34.4239 17.6143 33.4667 17.8376 32.6611 17.4632C31.9811 17.1471 31.6852 16.746 31.5583 15.9677C31.4605 15.3685 31.548 14.5619 31.9067 12.757C32.5763 9.3872 32.626 8.71985 32.2847 7.6863C32.0909 7.09916 31.8739 6.84941 31.5577 6.84941C31.2785 6.84941 31.1616 6.93855 30.9552 7.30878C30.7203 7.73011 30.339 8.08199 29.8854 8.29598C29.5886 8.43603 29.4462 8.46192 28.971 8.46249C28.4706 8.46312 28.363 8.44147 28.0015 8.26756C26.6904 7.6368 26.24 6.18231 26.3968 3.08637L26.4544 1.95071L26.2575 1.77268C26.0184 1.55648 25.7691 1.54305 25.5297 1.73362ZM10.4741 18.9456C10.0514 19.1716 9.87831 19.7318 10.0911 20.1857C10.2772 20.5827 11.7212 21.8154 12.8466 22.5378C13.606 23.0254 14.6821 23.5873 14.735 23.5238C14.7604 23.4933 14.8321 23.2974 14.8942 23.0885C14.9562 22.8796 15.1046 22.4998 15.2238 22.2444C15.343 21.9891 15.4312 21.7729 15.4197 21.7639C15.4082 21.7549 15.1176 21.5991 14.7739 21.4177C13.8996 20.9561 13.0463 20.361 12.2354 19.6471C11.8539 19.3114 11.4667 18.9869 11.375 18.9262C11.1563 18.7813 10.7658 18.7897 10.4741 18.9456ZM19.4427 20.4654C18.2745 20.6205 17.28 21.2364 16.6602 22.1884C16.007 23.1918 15.7766 24.0412 15.8236 25.2727C15.8725 26.5498 16.1866 27.2936 17.0562 28.1913C18.4175 29.5966 20.6919 30.4358 24.1863 30.8222C25.3917 30.9555 28.1186 30.9727 29.0335 30.8528C33.6937 30.2421 37.6834 28.255 40.8264 24.9791C41.9851 23.7714 42.1274 23.5305 41.9207 23.1259C41.7445 22.7809 41.5606 22.7656 40.5933 23.0159C39.5419 23.2879 38.3368 23.5233 37.4145 23.6369C36.3324 23.7702 33.0058 23.7515 31.9419 23.6064C29.3909 23.2582 27.0035 22.5962 24.038 21.4147C22.0794 20.6344 20.5493 20.3183 19.4427 20.4654ZM18.0512 23.7186C18.1479 23.7692 18.2634 23.8998 18.308 24.0088C18.3768 24.1769 18.3734 24.2578 18.2856 24.5397C17.9707 25.5511 18.3892 26.4155 19.5182 27.0855C20.7582 27.8213 22.9023 28.3345 25.3372 28.4781C25.719 28.5006 26.1079 28.5581 26.2015 28.6059C26.5442 28.7809 26.6024 29.1922 26.3308 29.5189L26.1613 29.7229L25.3145 29.6831C23.058 29.5772 20.8861 29.0965 19.4016 28.3747C18.297 27.8375 17.627 27.2157 17.2188 26.349C17.0354 25.9596 17.0249 25.8965 17.0249 25.1777C17.0249 24.494 17.0406 24.3864 17.1813 24.1015C17.4014 23.6559 17.6893 23.5292 18.0512 23.7186Z" fill="#1B1B1B"/>
<path fill-rule="evenodd" clip-rule="evenodd" d="M10.4741 18.9457C10.0514 19.1717 9.87831 19.7319 10.0911 20.1858C10.2772 20.5829 11.7212 21.8155 12.8466 22.538C13.606 23.0255 14.6821 23.5874 14.735 23.524C14.7604 23.4934 14.8321 23.2976 14.8942 23.0886C14.9562 22.8797 15.1046 22.4999 15.2238 22.2446C15.343 21.9892 15.4312 21.773 15.4197 21.7641C15.4082 21.7551 15.1176 21.5993 14.7739 21.4178C13.8996 20.9562 13.0463 20.3611 12.2354 19.6473C11.8539 19.3115 11.4667 18.9871 11.375 18.9263C11.1563 18.7814 10.7658 18.7899 10.4741 18.9457ZM19.4427 20.4655C18.2745 20.6207 17.28 21.2365 16.6602 22.1885C16.007 23.192 15.7766 24.0413 15.8236 25.2728C15.8725 26.5499 16.1866 27.2938 17.0562 28.1914C18.4175 29.5967 20.6919 30.436 24.1863 30.8224C25.3917 30.9556 28.1186 30.9729 29.0335 30.8529C33.6937 30.2423 37.6834 28.2551 40.8264 24.9793C41.9851 23.7715 42.1274 23.5306 41.9207 23.126C41.7445 22.781 41.5606 22.7657 40.5933 23.016C39.5419 23.2881 38.3368 23.5234 37.4145 23.637C36.3324 23.7703 33.0058 23.7517 31.9419 23.6065C29.3909 23.2583 27.0035 22.5963 24.038 21.4148C22.0794 20.6345 20.5493 20.3184 19.4427 20.4655ZM18.0512 23.7188C18.1479 23.7693 18.2634 23.9 18.308 24.009C18.3768 24.177 18.3734 24.2579 18.2856 24.5398C17.9707 25.5512 18.3892 26.4156 19.5182 27.0856C20.7582 27.8215 22.9023 28.3346 25.3372 28.4782C25.719 28.5007 26.1079 28.5583 26.2015 28.6061C26.5442 28.781 26.6024 29.1923 26.3308 29.519L26.1613 29.723L25.3145 29.6833C23.058 29.5773 20.8861 29.0967 19.4016 28.3748C18.297 27.8376 17.627 27.2158 17.2188 26.3491C17.0354 25.9598 17.0249 25.8966 17.0249 25.1779C17.0249 24.4941 17.0406 24.3865 17.1813 24.1016C17.4014 23.6561 17.6893 23.5293 18.0512 23.7188Z" fill="#E07153"/>
<path d="M11.2832 44.9805C10.5801 45.7383 9.63281 46.1172 8.44141 46.1172C7.25 46.1172 6.30078 45.7383 5.59375 44.9805C4.89062 44.2188 4.53906 43.1582 4.53906 41.7988C4.53906 40.4395 4.89062 39.3809 5.59375 38.623C6.30078 37.8613 7.25 37.4805 8.44141 37.4805C9.63281 37.4805 10.5801 37.8613 11.2832 38.623C11.9863 39.3809 12.3379 40.4395 12.3379 41.7988C12.3379 43.1582 11.9863 44.2188 11.2832 44.9805ZM6.68359 44.0254C7.11719 44.541 7.70117 44.7988 8.43555 44.7988C9.17383 44.7988 9.75781 44.541 10.1875 44.0254C10.6211 43.5098 10.8379 42.7676 10.8379 41.7988C10.8379 40.8301 10.6211 40.0879 10.1875 39.5723C9.75781 39.0566 9.17383 38.7988 8.43555 38.7988C7.70117 38.7988 7.11719 39.0566 6.68359 39.5723C6.25391 40.0879 6.03906 40.8301 6.03906 41.7988C6.03906 42.7676 6.25391 43.5098 6.68359 44.0254ZM16.3633 46.1172C15.4531 46.1172 14.7246 45.8262 14.1777 45.2441C13.6348 44.6582 13.3633 43.8496 13.3633 42.8184C13.3633 41.7871 13.6348 40.9805 14.1777 40.3984C14.7207 39.8125 15.4492 39.5195 16.3633 39.5195C17.1055 39.5195 17.7207 39.7188 18.209 40.1172C18.6973 40.5117 19.0215 41.0117 19.1816 41.6172H17.8047C17.4922 41.0586 17.0117 40.7793 16.3633 40.7793C15.875 40.7793 15.4824 40.957 15.1855 41.3125C14.8887 41.668 14.7402 42.1699 14.7402 42.8184C14.7402 43.4668 14.8887 43.9688 15.1855 44.3242C15.4824 44.6797 15.875 44.8574 16.3633 44.8574C17.0117 44.8574 17.4922 44.5781 17.8047 44.0195H19.1816C19.0215 44.6289 18.6973 45.1309 18.209 45.5254C17.7207 45.9199 17.1055 46.1172 16.3633 46.1172ZM21.4551 46V40.9023H19.4102V39.6426H24.8711V40.9023H22.832V46H21.4551ZM25.7676 48.4023V39.6426H26.9102L27.0859 40.4219H27.1504C27.3418 40.1562 27.5996 39.9395 27.9238 39.7715C28.248 39.6035 28.6094 39.5195 29.0078 39.5195C29.8398 39.5195 30.5078 39.8086 31.0117 40.3867C31.5156 40.9609 31.7676 41.7734 31.7676 42.8242C31.7676 43.8711 31.5156 44.6816 31.0117 45.2559C30.5078 45.8301 29.8398 46.1172 29.0078 46.1172C28.6016 46.1172 28.2363 46.0312 27.9121 45.8594C27.5879 45.6875 27.3535 45.4941 27.209 45.2793H27.1504V48.4023H25.7676ZM27.6016 44.3359C27.9062 44.6836 28.2949 44.8574 28.7676 44.8574C29.2402 44.8574 29.6289 44.6836 29.9336 44.3359C30.2383 43.9883 30.3906 43.4824 30.3906 42.8184C30.3906 42.1543 30.2383 41.6484 29.9336 41.3008C29.6289 40.9531 29.2402 40.7793 28.7676 40.7793C28.2949 40.7793 27.9062 40.9531 27.6016 41.3008C27.3008 41.6484 27.1504 42.1543 27.1504 42.8184C27.1504 43.4824 27.3008 43.9883 27.6016 44.3359ZM37.9141 45.2441C37.3711 45.8262 36.6426 46.1172 35.7285 46.1172C34.8184 46.1172 34.0918 45.8262 33.5488 45.2441C33.0059 44.6582 32.7344 43.8496 32.7344 42.8184C32.7344 41.7871 33.0059 40.9805 33.5488 40.3984C34.0918 39.8125 34.8184 39.5195 35.7285 39.5195C36.6426 39.5195 37.3711 39.8125 37.9141 40.3984C38.4609 40.9805 38.7344 41.7871 38.7344 42.8184C38.7344 43.8496 38.4609 44.6582 37.9141 45.2441ZM34.5684 44.3359C34.873 44.6836 35.2617 44.8574 35.7344 44.8574C36.207 44.8574 36.5938 44.6836 36.8945 44.3359C37.1992 43.9883 37.3516 43.4824 37.3516 42.8184C37.3516 42.1543 37.1992 41.6484 36.8945 41.3008C36.5938 40.9531 36.207 40.7793 35.7344 40.7793C35.2617 40.7793 34.873 40.9531 34.5684 41.3008C34.2637 41.6484 34.1113 42.1543 34.1113 42.8184C34.1113 43.4824 34.2637 43.9883 34.5684 44.3359ZM42.7422 46.1172C41.8047 46.1172 41.0625 45.8281 40.5156 45.25C39.9688 44.6719 39.6953 43.8613 39.6953 42.8184C39.6953 41.7871 39.9668 40.9805 40.5098 40.3984C41.0527 39.8125 41.7812 39.5195 42.6953 39.5195C43.625 39.5195 44.3574 39.8203 44.8926 40.4219C45.4277 41.0195 45.6953 41.7598 45.6953 42.6426L45.6367 43.2402H41.1367C41.168 43.7285 41.3262 44.1211 41.6113 44.418C41.9004 44.7109 42.2812 44.8574 42.7539 44.8574C43.2891 44.8574 43.7285 44.6191 44.0723 44.1426H45.5723C45.3809 44.7285 45.0469 45.2051 44.5703 45.5723C44.0938 45.9355 43.4844 46.1172 42.7422 46.1172ZM41.1367 42.1621H44.2539C44.1914 41.7559 44.0234 41.4238 43.75 41.166C43.4805 40.9082 43.1289 40.7793 42.6953 40.7793C42.2891 40.7793 41.9512 40.9023 41.6816 41.1484C41.416 41.3906 41.2344 41.7285 41.1367 42.1621Z" fill="#1B1B1B"/>
</svg>
