<svg width="51" height="59" viewBox="0 0 51 59" fill="none" xmlns="http://www.w3.org/2000/svg">
<path fill-rule="evenodd" clip-rule="evenodd" d="M26.393 1.63506C26.252 1.67985 25.7823 2.43399 25.6196 2.87677C25.5202 3.14697 25.493 3.40945 25.5151 3.88214C25.5447 4.51352 25.5506 4.53054 25.9713 5.17763C26.3234 5.71917 26.4043 5.90462 26.4358 6.24268C26.4807 6.72397 26.3248 7.27493 25.9762 7.86642C25.632 8.45043 25.6803 8.6918 26.1413 8.6918C26.3922 8.6918 26.5276 8.58003 26.8026 8.1458C27.1764 7.55557 27.3503 6.91659 27.3144 6.26586C27.2836 5.70924 27.2642 5.65659 26.849 5.0053L26.4156 4.32555V3.69731C26.4156 3.08729 26.4254 3.05299 26.7531 2.51333C26.9387 2.2077 27.0906 1.93203 27.0906 1.9008C27.0906 1.86958 27.0191 1.78747 26.9318 1.71836C26.7772 1.59611 26.6012 1.56891 26.393 1.63506ZM20.357 4.27843C19.7874 4.91936 19.4952 5.88446 19.6344 6.66573C19.6903 6.97941 19.8179 7.25332 20.1247 7.71803L20.5395 8.34627L20.5368 8.94309C20.5343 9.49249 20.5098 9.58484 20.2296 10.1053C20.0621 10.4163 19.9082 10.7439 19.8877 10.8334C19.8394 11.0431 20.054 11.2179 20.3285 11.1924C20.5968 11.1676 20.815 10.9056 21.1433 10.2143C21.3813 9.71319 21.4042 9.6023 21.4084 8.93694L21.4129 8.20831L20.9776 7.5234C20.5839 6.90402 20.5394 6.79251 20.5129 6.35815C20.4796 5.80995 20.6189 5.34782 20.9781 4.81532C21.197 4.49071 21.2083 4.36287 21.0335 4.18419C20.8928 4.04033 20.5228 4.09191 20.357 4.27843ZM32.0472 4.36494C31.9334 4.50749 31.7471 4.81143 31.633 5.04029C31.4511 5.40549 31.4253 5.54935 31.422 6.21642L31.4183 6.97652L31.8551 7.66136L32.2918 8.34627L32.2908 8.94309C32.2899 9.49305 32.266 9.58433 31.9867 10.1053C31.5888 10.8477 31.5674 10.9318 31.7385 11.0813C31.9146 11.2353 32.1871 11.24 32.3565 11.0919C32.5457 10.9265 32.9357 10.2183 33.0798 9.77852C33.2388 9.2929 33.2403 8.55736 33.0831 8.13851C33.016 7.95984 32.8106 7.59427 32.6265 7.32607C32.2966 6.84547 32.2918 6.82951 32.2918 6.21026C32.2918 5.59754 32.3004 5.56776 32.6407 5.00373C32.9791 4.44303 32.9857 4.4206 32.8573 4.26555C32.6408 4.00414 32.3019 4.04573 32.0472 4.36494Z" fill="#1B1B1B"/>
<path fill-rule="evenodd" clip-rule="evenodd" d="M17.7418 25.2698L24.3363 30.6161C24.8381 30.9949 25.4497 31.1999 26.0785 31.1999C26.7072 31.1999 27.3189 30.9949 27.8207 30.6161L34.4152 25.2698C34.6441 25.0831 34.827 24.8462 34.9497 24.5774C35.0723 24.3087 35.1315 24.0153 35.1225 23.72V15.4925C35.1443 15.1973 35.1068 14.9007 35.0121 14.6202C34.9174 14.3397 34.7675 14.0811 34.5712 13.8595C34.6566 14.1999 34.6401 14.5579 34.5236 14.889C34.407 15.22 34.1957 15.5095 33.9159 15.7213L27.311 21.0676C26.8233 21.4737 26.2087 21.6961 25.574 21.6961C24.9394 21.6961 24.3247 21.4737 23.837 21.0676L17.2425 15.7213C16.9061 15.461 16.6678 15.0944 16.5664 14.6812L16.4 15.7213L17.0033 23.7928C17.0084 24.0793 17.0752 24.3614 17.199 24.6198C17.3229 24.8783 17.5009 25.107 17.721 25.2906L17.7418 25.2698Z" fill="#1B1B1B"/>
<path fill-rule="evenodd" clip-rule="evenodd" d="M27.3943 17.2712L27.7064 17.0216L30.0778 15.0973C30.181 15.022 30.265 14.9234 30.3228 14.8096C30.3807 14.6957 30.4108 14.5698 30.4108 14.442C30.4108 14.3143 30.3807 14.1884 30.3228 14.0745C30.265 13.9607 30.181 13.8621 30.0778 13.7868L26.5726 10.968C26.3392 10.7908 26.0543 10.6949 25.7613 10.6949C25.4683 10.6949 25.1833 10.7908 24.95 10.968L23.9827 11.7481C23.0049 12.549 23.6706 13.5683 24.3259 14.5253C24.588 14.9215 24.88 15.2971 25.1996 15.6486C25.5845 16.0647 26.8431 17.7289 27.3943 17.292V17.2712Z" fill="#E07153"/>
<path fill-rule="evenodd" clip-rule="evenodd" d="M21.216 15.2951L24.7212 18.1347C24.9051 18.2721 25.1209 18.3604 25.3484 18.3913C25.5758 18.4223 25.8075 18.3948 26.0214 18.3115C26.7807 18.0202 25.9173 17.521 25.5429 17.1777C25.1684 16.8345 24.7524 16.4496 24.5028 16.1376C24.1655 15.7692 23.8561 15.3764 23.577 14.9622C22.7137 13.7141 23.0778 12.5075 22.1105 13.298L21.2575 13.9845C21.1543 14.0609 21.0704 14.1605 21.0126 14.2752C20.9548 14.3899 20.9247 14.5166 20.9247 14.645C20.9247 14.7734 20.9548 14.9001 21.0126 15.0148C21.0704 15.1295 21.1543 15.2291 21.2575 15.3055L21.216 15.2951Z" fill="#E07153"/>
<path d="M2.51367 46V37.5977H7.73438V39.2207H4.31836V46H2.51367ZM12.6562 45.25C12.1016 45.8281 11.3398 46.1172 10.3711 46.1172C9.40234 46.1172 8.64062 45.8281 8.08594 45.25C7.53125 44.6719 7.25391 43.8633 7.25391 42.8242C7.25391 41.7812 7.53125 40.9707 8.08594 40.3926C8.64062 39.8105 9.40234 39.5195 10.3711 39.5195C11.3398 39.5195 12.1016 39.8105 12.6562 40.3926C13.2148 40.9707 13.4941 41.7812 13.4941 42.8242C13.4941 43.8633 13.2148 44.6719 12.6562 45.25ZM9.33984 44.1719C9.61328 44.4688 9.95703 44.6172 10.3711 44.6172C10.7891 44.6172 11.1328 44.4688 11.4023 44.1719C11.6758 43.8711 11.8125 43.4219 11.8125 42.8242C11.8125 42.2227 11.6758 41.7715 11.4023 41.4707C11.1328 41.1699 10.7891 41.0195 10.3711 41.0195C9.95703 41.0195 9.61328 41.1699 9.33984 41.4707C9.06641 41.7715 8.92969 42.2227 8.92969 42.8242C8.92969 43.4219 9.06641 43.8711 9.33984 44.1719ZM14.6309 48.4023V39.6426H16.0723L16.248 40.3574H16.3125C16.793 39.7988 17.3926 39.5195 18.1113 39.5195C18.9434 39.5195 19.6113 39.8066 20.1152 40.3809C20.6191 40.9512 20.8711 41.7656 20.8711 42.8242C20.8711 43.8789 20.6191 44.6914 20.1152 45.2617C19.6113 45.832 18.9434 46.1172 18.1113 46.1172C17.3691 46.1172 16.7891 45.8574 16.3711 45.3379H16.3125V48.4023H14.6309ZM16.7168 44.1719C16.9902 44.4688 17.334 44.6172 17.748 44.6172C18.166 44.6172 18.5098 44.4688 18.7793 44.1719C19.0527 43.8711 19.1895 43.4219 19.1895 42.8242C19.1895 42.2227 19.0527 41.7715 18.7793 41.4707C18.5098 41.1699 18.166 41.0195 17.748 41.0195C17.334 41.0195 16.9902 41.1699 16.7168 41.4707C16.4473 41.7715 16.3125 42.2227 16.3125 42.8242C16.3125 43.4219 16.4473 43.8711 16.7168 44.1719ZM21.5332 46L22.998 43.7207C22.623 43.5605 22.3242 43.3125 22.1016 42.9766C21.8828 42.6406 21.7734 42.248 21.7734 41.7988C21.7734 41.1426 21.9766 40.6191 22.3828 40.2285C22.793 39.8379 23.3301 39.6426 23.9941 39.6426H27.1113V46H25.4355V43.9023H24.7734L23.4551 46H21.5332ZM24.1758 42.4023H25.4355V41.1426H24.1758C23.6953 41.1426 23.4551 41.3613 23.4551 41.7988C23.4551 42.2012 23.6953 42.4023 24.1758 42.4023ZM32.2734 46V44.0195C31.875 44.1797 31.4336 44.2598 30.9492 44.2598C30.1172 44.2598 29.4883 44.0488 29.0625 43.627C28.6406 43.2012 28.4297 42.5918 28.4297 41.7988V39.6426H30.1113V41.7988C30.1113 42.4395 30.4922 42.7598 31.2539 42.7598C31.668 42.7598 32.0078 42.6797 32.2734 42.5195V39.6426H33.9492V46H32.2734ZM35.3965 46V39.6426H37.0781V43.4805H37.1367L39.416 39.6426H41.2734V46H39.5977V42.0977H39.5332L37.2539 46H35.3965ZM42.7207 46V39.6426H44.4023V43.4805H44.4609L46.7402 39.6426H48.5977V46H46.9219V42.0977H46.8574L44.5781 46H42.7207ZM46.9629 38.2949C46.6074 38.5918 46.1738 38.7402 45.6621 38.7402C45.1504 38.7402 44.7148 38.5898 44.3555 38.2891C44 37.9883 43.7949 37.5391 43.7402 36.9414H44.9414C44.9961 37.4219 45.2344 37.6621 45.6562 37.6621C46.082 37.6621 46.3242 37.4219 46.3828 36.9414H47.5781C47.5234 37.543 47.3184 37.9941 46.9629 38.2949ZM12.0293 58.4023V49.6426H13.4707L13.6465 50.3574H13.7109C14.1914 49.7988 14.791 49.5195 15.5098 49.5195C16.3418 49.5195 17.0098 49.8066 17.5137 50.3809C18.0176 50.9512 18.2695 51.7656 18.2695 52.8242C18.2695 53.8789 18.0176 54.6914 17.5137 55.2617C17.0098 55.832 16.3418 56.1172 15.5098 56.1172C14.7676 56.1172 14.1875 55.8574 13.7695 55.3379H13.7109V58.4023H12.0293ZM14.1152 54.1719C14.3887 54.4688 14.7324 54.6172 15.1465 54.6172C15.5645 54.6172 15.9082 54.4688 16.1777 54.1719C16.4512 53.8711 16.5879 53.4219 16.5879 52.8242C16.5879 52.2227 16.4512 51.7715 16.1777 51.4707C15.9082 51.1699 15.5645 51.0195 15.1465 51.0195C14.7324 51.0195 14.3887 51.1699 14.1152 51.4707C13.8457 51.7715 13.7109 52.2227 13.7109 52.8242C13.7109 53.4219 13.8457 53.8711 14.1152 54.1719ZM24.5156 55.25C23.9609 55.8281 23.1992 56.1172 22.2305 56.1172C21.2617 56.1172 20.5 55.8281 19.9453 55.25C19.3906 54.6719 19.1133 53.8633 19.1133 52.8242C19.1133 51.7812 19.3906 50.9707 19.9453 50.3926C20.5 49.8105 21.2617 49.5195 22.2305 49.5195C23.1992 49.5195 23.9609 49.8105 24.5156 50.3926C25.0742 50.9707 25.3535 51.7812 25.3535 52.8242C25.3535 53.8633 25.0742 54.6719 24.5156 55.25ZM21.1992 54.1719C21.4727 54.4688 21.8164 54.6172 22.2305 54.6172C22.6484 54.6172 22.9922 54.4688 23.2617 54.1719C23.5352 53.8711 23.6719 53.4219 23.6719 52.8242C23.6719 52.2227 23.5352 51.7715 23.2617 51.4707C22.9922 51.1699 22.6484 51.0195 22.2305 51.0195C21.8164 51.0195 21.4727 51.1699 21.1992 51.4707C20.9258 51.7715 20.7891 52.2227 20.7891 52.8242C20.7891 53.4219 20.9258 53.8711 21.1992 54.1719ZM25.8867 56.1172V54.4414H26.0684C26.4434 54.4414 26.6875 54.2793 26.8008 53.9551C26.9141 53.6309 26.9707 53.0117 26.9707 52.0977V49.6426H32.0098V56H30.3281V51.2012H28.6523V52.3379C28.6523 52.8027 28.6328 53.2109 28.5938 53.5625C28.5586 53.9141 28.4902 54.2578 28.3887 54.5938C28.291 54.9297 28.1582 55.2051 27.9902 55.4199C27.8223 55.6309 27.5957 55.8008 27.3105 55.9297C27.0254 56.0547 26.6914 56.1172 26.3086 56.1172H25.8867ZM32.8477 56.1172V54.4414H33.0293C33.4043 54.4414 33.6484 54.2793 33.7617 53.9551C33.875 53.6309 33.9316 53.0117 33.9316 52.0977V49.6426H38.9707V56H37.2891V51.2012H35.6133V52.3379C35.6133 52.8027 35.5938 53.2109 35.5547 53.5625C35.5195 53.9141 35.4512 54.2578 35.3496 54.5938C35.252 54.9297 35.1191 55.2051 34.9512 55.4199C34.7832 55.6309 34.5566 55.8008 34.2715 55.9297C33.9863 56.0547 33.6523 56.1172 33.2695 56.1172H32.8477Z" fill="#1B1B1B"/>
</svg>
