<svg width="72" height="72" viewBox="0 0 72 72" fill="none" xmlns="http://www.w3.org/2000/svg">
<circle cx="36" cy="36" r="36" fill="#62E2B4"/>
<path d="M14.8496 45V30.9961H18.7559L24.0488 40.5957H24.1562V30.9961H27.1543V45H23.2578L17.9551 35.4004H17.8574V45H14.8496ZM29.9473 45V30.9961H39.4492V33.7012H32.9551V36.6992H39.0488V39.1992H32.9551V42.3047H39.6543V45H29.9473ZM44.3418 45L40.6406 30.9961H43.7461L45.9434 40.7031H46.041L48.4434 30.9961H51.6465L54.0391 40.7031H54.1465L56.3438 30.9961H59.4395L55.7383 45H52.4473L50.0449 35.3027L47.6426 45H44.3418Z" fill="white"/>
</svg>
