<svg width="72" height="72" viewBox="0 0 72 72" fill="none" xmlns="http://www.w3.org/2000/svg">
<circle cx="36" cy="36" r="36" fill="#A1DCDC"/>
<path d="M20.1992 45V34.1992H16.1953V30.9961H27.7969V34.1992H23.8027V45H20.1992ZM39.8574 43.3008C38.6465 44.5638 37.0189 45.1953 34.9746 45.1953C32.9368 45.1953 31.3125 44.5638 30.1016 43.3008C28.8906 42.0312 28.2852 40.2637 28.2852 37.998C28.2852 35.7324 28.8906 33.9681 30.1016 32.7051C31.3125 31.4355 32.9368 30.8008 34.9746 30.8008C37.0189 30.8008 38.6465 31.4355 39.8574 32.7051C41.0749 33.9681 41.6836 35.7324 41.6836 37.998C41.6836 40.2637 41.0749 42.0312 39.8574 43.3008ZM32.6895 40.9473C33.2298 41.6504 33.9915 42.002 34.9746 42.002C35.9642 42.002 36.7292 41.6504 37.2695 40.9473C37.8099 40.2376 38.0801 39.2578 38.0801 38.0078C38.0801 36.7513 37.8099 35.7715 37.2695 35.0684C36.7292 34.3587 35.9642 34.0039 34.9746 34.0039C33.9915 34.0039 33.2298 34.3587 32.6895 35.0684C32.1491 35.7715 31.8789 36.7513 31.8789 38.0078C31.8789 39.2578 32.1491 40.2376 32.6895 40.9473ZM43.6855 45V30.9961H49.6914C51.1953 30.9961 52.4193 31.4648 53.3633 32.4023C54.3138 33.3333 54.7891 34.5312 54.7891 35.9961C54.7891 37.4479 54.3105 38.6458 53.3535 39.5898C52.403 40.5273 51.1823 40.9961 49.6914 40.9961H47.2891V45H43.6855ZM47.2891 37.8027H49.3887C49.9355 37.8027 50.3717 37.64 50.6973 37.3145C51.0228 36.9824 51.1855 36.543 51.1855 35.9961C51.1855 35.4492 51.0228 35.013 50.6973 34.6875C50.3717 34.362 49.9355 34.1992 49.3887 34.1992H47.2891V37.8027Z" fill="white"/>
</svg>
