<svg width="51" height="49" viewBox="0 0 51 49" fill="none" xmlns="http://www.w3.org/2000/svg">
<path fill-rule="evenodd" clip-rule="evenodd" d="M36.9707 1.9326C36.7105 2.58504 36.1152 3.71192 35.7213 4.29769C34.8791 5.55019 34.2473 6.20657 32.0157 8.14739C29.7257 10.139 29.0452 10.8936 28.3854 12.1734C27.6234 13.6513 27.3646 14.8928 27.3129 17.318C27.2894 18.4227 27.2974 18.6417 27.358 18.5543C27.3985 18.4959 27.6346 18.136 27.8827 17.7545C28.8359 16.2886 29.6893 15.3309 31.4713 13.7276C33.2824 12.0981 33.9905 11.3246 34.811 10.0797C35.4402 9.125 36.5643 7.01309 36.8572 6.23548C36.9475 5.99561 37.0627 5.89272 37.2409 5.89272C37.7239 5.89272 37.7305 6.64445 37.2617 8.26159C36.8445 9.70112 36.2679 10.9625 35.5094 12.0949C34.9221 12.9716 34.4696 13.5141 33.3049 14.7379C31.7961 16.3231 31.3681 16.8061 30.79 17.5751C30.0742 18.5272 29.4118 19.5684 29.4791 19.6354C29.4911 19.6474 29.5897 19.6332 29.6982 19.6039C29.8067 19.5746 30.5789 19.4218 31.414 19.2643C33.6956 18.8339 34.5806 18.5723 35.733 17.9873C37.6274 17.0255 38.9579 15.3612 39.749 12.9639C40.4907 10.7163 40.5995 8.52711 40.0713 6.48021C39.6367 4.79584 38.6679 3.12694 37.4149 1.90403L37.1034 1.60001L36.9707 1.9326ZM24.9964 3.93077C22.4894 4.17047 20.2275 5.0693 18.3496 6.57201C18.1133 6.76116 17.9199 6.93277 17.9199 6.95333C17.9199 6.97396 18.1263 7.05022 18.3787 7.12283C18.631 7.19549 19.0694 7.35482 19.3528 7.47695L19.8681 7.69901L20.3265 7.40155C22.9559 5.69535 26.2347 5.26861 29.208 6.24565C29.8451 6.45502 30.9589 6.98372 31.519 7.34259L31.9392 7.61183L32.6034 7.02366C32.9687 6.70009 33.2695 6.4104 33.2719 6.37984C33.2801 6.27541 32.1317 5.55031 31.3281 5.15242C30.0258 4.50769 28.6024 4.10152 27.1248 3.95293C26.5744 3.89763 25.4641 3.88604 24.9964 3.93077ZM36.7884 7.47496C36.3243 8.43799 35.713 9.53094 35.2131 10.2915C34.3697 11.5744 33.6775 12.3505 32.1596 13.715C29.9834 15.6714 28.9701 16.8194 27.9875 18.4419C27.1206 19.8733 26.3831 21.7414 25.9393 23.6305C25.9172 23.7248 25.8901 23.7762 25.8792 23.7448C25.8683 23.7133 25.7426 23.2831 25.5998 22.7886C24.762 19.8858 23.2861 16.9514 21.3976 14.4331C20.5722 13.3325 19.2964 11.9019 18.5921 11.2871L18.2064 10.9504L18.4254 11.2211C20.7226 14.0606 22.7707 17.9482 23.929 21.6677C24.7446 24.2867 25.2829 27.5788 25.2829 29.9476V30.4H25.9615H26.6401L26.6789 29.2834C26.8683 23.8294 28.1835 19.9225 30.9425 16.6176C31.1793 16.3339 31.9245 15.5368 32.5984 14.8463C33.2724 14.1558 33.9926 13.3818 34.1989 13.1265C35.3258 11.7322 36.2653 9.97927 36.7606 8.34722C36.9668 7.66782 37.1529 6.91894 37.1314 6.85485C37.1215 6.82503 36.9671 7.10409 36.7884 7.47496ZM14.1954 7.18915C13.2907 7.26993 11.5674 7.58361 11.6006 7.66153C11.6096 7.68267 11.8255 7.88238 12.0805 8.10535C13.0716 8.97213 13.8124 9.98464 14.1925 10.9921C14.3988 11.5387 14.5344 12.099 14.7698 13.3763C15.0651 14.978 15.3055 15.6434 15.8999 16.5034C16.7792 17.7756 18.3241 18.674 20.4052 19.1231C21.0232 19.2566 22.5756 19.4649 22.6202 19.4205C22.6535 19.3873 21.9002 17.7044 21.4745 16.861C20.5171 14.964 19.288 13.0344 18.0945 11.5546C17.6136 10.9583 17.5496 10.7432 17.7875 10.5222C17.9641 10.3581 18.1774 10.3772 18.47 10.5835C18.918 10.8994 20.3654 12.4089 21.1204 13.3477C21.9162 14.3372 23.1001 16.0674 23.6495 17.0436C23.9321 17.5458 24.0031 17.6369 24.0506 17.5574C24.085 17.4998 24.1078 16.9193 24.1071 16.1184C24.1057 14.609 24.0373 14.1512 23.6459 13.0299C22.9214 10.9548 21.2654 8.9274 19.6141 8.09392C18.7423 7.65388 17.5458 7.32351 16.4097 7.2092C15.8539 7.15328 14.7132 7.14294 14.1954 7.18915ZM14.0893 13.4778C13.8842 14.4469 13.8521 14.7965 13.8548 16.0327C13.8578 17.4211 13.9453 18.0884 14.2797 19.2744C15.4493 23.4226 18.7557 26.6419 22.9556 27.7219C23.4682 27.8536 24.6677 28.0614 24.7047 28.0247C24.733 27.9967 24.5463 26.375 24.5013 26.2582C24.4839 26.2128 24.3755 26.1596 24.2603 26.1397C24.1452 26.12 23.7997 26.0417 23.4926 25.9659C19.4744 24.9738 16.4687 21.7204 15.7964 17.6355C15.7032 17.0696 15.6742 16.9929 15.3926 16.5662C14.8939 15.8104 14.5376 14.787 14.3364 13.5317C14.2972 13.2874 14.2466 13.076 14.2239 13.062C14.2012 13.048 14.1406 13.2351 14.0893 13.4778ZM37.6597 17.2163C37.3153 17.5331 36.1648 18.3463 36.0612 18.3463C36.0363 18.3463 35.958 18.5572 35.8871 18.815C35.7258 19.4019 35.5019 19.9662 35.161 20.6455C33.7665 23.4237 31.1346 25.4302 28.0488 26.0675C27.7093 26.1376 27.4156 26.2183 27.396 26.2468C27.3763 26.2754 27.33 26.6239 27.2931 27.0212C27.2561 27.4185 27.2148 27.8145 27.2012 27.9012C27.1731 28.0805 27.1472 28.0803 28.1479 27.908C32.7076 27.1227 36.5533 23.5728 37.7114 19.08C37.9038 18.3332 38.0772 17.2923 38.0505 17.0441L38.0321 16.8739L37.6597 17.2163Z" fill="#00C070"/>
<path d="M10.9805 46L8.09766 37.5977H9.7207L11.9414 44.3184H12L14.2207 37.5977H15.8379L12.9609 46H10.9805ZM18.832 46.1172C17.8945 46.1172 17.1523 45.8281 16.6055 45.25C16.0586 44.6719 15.7852 43.8613 15.7852 42.8184C15.7852 41.7871 16.0566 40.9805 16.5996 40.3984C17.1426 39.8125 17.8711 39.5195 18.7852 39.5195C19.7148 39.5195 20.4473 39.8203 20.9824 40.4219C21.5176 41.0195 21.7852 41.7598 21.7852 42.6426L21.7266 43.2402H17.2266C17.2578 43.7285 17.416 44.1211 17.7012 44.418C17.9902 44.7109 18.3711 44.8574 18.8438 44.8574C19.3789 44.8574 19.8184 44.6191 20.1621 44.1426H21.6621C21.4707 44.7285 21.1367 45.2051 20.6602 45.5723C20.1836 45.9355 19.5742 46.1172 18.832 46.1172ZM17.2266 42.1621H20.3438C20.2812 41.7559 20.1133 41.4238 19.8398 41.166C19.5703 40.9082 19.2188 40.7793 18.7852 40.7793C18.3789 40.7793 18.041 40.9023 17.7715 41.1484C17.5059 41.3906 17.3242 41.7285 17.2266 42.1621ZM25.7461 48.4023C24.2188 48.4023 23.2578 47.7207 22.8633 46.3574H24.3047C24.4805 46.877 24.9609 47.1387 25.7461 47.1426C26.2266 47.1426 26.6055 47.0254 26.8828 46.791C27.1641 46.5605 27.3047 46.2363 27.3047 45.8184V44.7988H27.2461C27.0781 45.0293 26.834 45.2285 26.5137 45.3965C26.1934 45.5605 25.8379 45.6426 25.4473 45.6426C24.6465 45.6426 23.9961 45.375 23.4961 44.8398C22.9961 44.3008 22.7461 43.5488 22.7461 42.584C22.7461 41.6152 22.9961 40.8633 23.4961 40.3281C23.9961 39.7891 24.6465 39.5195 25.4473 39.5195C25.8457 39.5195 26.207 39.6035 26.5312 39.7715C26.8555 39.9395 27.1133 40.1562 27.3047 40.4219H27.3633L27.5449 39.6426H28.6875V45.8184C28.6875 46.6348 28.4355 47.2695 27.9316 47.7227C27.4277 48.1758 26.6992 48.4023 25.7461 48.4023ZM25.6992 44.3828C26.1562 44.3828 26.5371 44.2207 26.8418 43.8965C27.1504 43.5723 27.3047 43.1348 27.3047 42.584C27.3047 42.0293 27.1504 41.5898 26.8418 41.2656C26.5332 40.9414 26.1465 40.7793 25.6816 40.7793C25.2207 40.7793 24.8457 40.9395 24.5566 41.2598C24.2676 41.5801 24.123 42.0215 24.123 42.584C24.123 43.1426 24.2695 43.582 24.5625 43.9023C24.8555 44.2227 25.2344 44.3828 25.6992 44.3828ZM32.3438 44.9219C32.8242 44.9219 33.2031 44.7988 33.4805 44.5527C33.7617 44.3027 33.9023 43.9648 33.9023 43.5391V43.2402H32.3438C31.625 43.2402 31.2637 43.5195 31.2598 44.0781C31.2598 44.3242 31.3516 44.5273 31.5352 44.6875C31.7227 44.8438 31.9922 44.9219 32.3438 44.9219ZM32.0391 46.1172C31.3906 46.1172 30.8691 45.9316 30.4746 45.5605C30.0801 45.1895 29.8828 44.7168 29.8828 44.1426C29.8828 43.5762 30.0938 43.1055 30.5156 42.7305C30.9414 42.3516 31.5293 42.1621 32.2793 42.1621H33.9023V41.8574C33.9023 41.498 33.7891 41.2188 33.5625 41.0195C33.3398 40.8203 33.0332 40.7207 32.6426 40.7207C32.3379 40.7207 32.0879 40.791 31.8926 40.9316C31.6973 41.0723 31.5664 41.2422 31.5 41.4414H30.082C30.2266 40.875 30.5234 40.4141 30.9727 40.0586C31.4219 39.6992 31.9785 39.5195 32.6426 39.5195C33.4746 39.5195 34.1211 39.7285 34.582 40.1465C35.0469 40.5605 35.2793 41.1309 35.2793 41.8574V46H34.0781L33.9609 45.2207H33.9023C33.7656 45.459 33.5312 45.668 33.1992 45.8477C32.8672 46.0273 32.4805 46.1172 32.0391 46.1172ZM36.7793 46V39.6426H37.9219L38.0977 40.4219H38.1621C38.5215 39.8203 39.1016 39.5195 39.9023 39.5195C40.5977 39.5195 41.1602 39.7559 41.5898 40.2285C42.0234 40.7012 42.2402 41.3242 42.2402 42.0977V46H40.8574V42.2207C40.8574 41.7715 40.7363 41.4199 40.4941 41.166C40.252 40.9082 39.9336 40.7793 39.5391 40.7793C39.1328 40.7793 38.8008 40.9199 38.543 41.2012C38.2891 41.4785 38.1621 41.8262 38.1621 42.2441V46H36.7793Z" fill="#1B1B1B"/>
</svg>
